<svg width="64" height="64" viewBox="0 0 64 64" fill="none" xmlns="http://www.w3.org/2000/svg">
<path d="M11 11C12.5938 11 14 12.4062 14 14V45.5C14 46.3438 14.6562 47 15.5 47H53C54.5938 47 56 48.4062 56 50C56 51.6875 54.5938 53 53 53H15.5C11.2812 53 8 49.7188 8 45.5V14C8 12.4062 9.3125 11 11 11ZM23 29C24.5938 29 26 30.4062 26 32V38C26 39.6875 24.5938 41 23 41C21.3125 41 20 39.6875 20 38V32C20 30.4062 21.3125 29 23 29ZM35 38C35 39.6875 33.5938 41 32 41C30.3125 41 29 39.6875 29 38V23C29 21.4062 30.3125 20 32 20C33.5938 20 35 21.4062 35 23V38ZM41 26C42.5938 26 44 27.4062 44 29V38C44 39.6875 42.5938 41 41 41C39.3125 41 38 39.6875 38 38V29C38 27.4062 39.3125 26 41 26ZM53 38C53 39.6875 51.5938 41 50 41C48.3125 41 47 39.6875 47 38V17C47 15.4062 48.3125 14 50 14C51.5938 14 53 15.4062 53 17V38Z" fill="#00CC99"/>
</svg>
